<svg id="b-preview" xmlns="http://www.w3.org/2000/svg" width="18" height="17" viewBox="0 0 18 17">
  <path id="Path" d="M9.626,0,7.035,2.453a3.279,3.279,0,0,1-.7,3.89,3.753,3.753,0,0,1-4.107.663L0,9.116A8.788,8.788,0,0,0,3.781,10c4.51,0,7.788-3.76,8.988-5.379a1.173,1.173,0,0,0,0-1.4A16.217,16.217,0,0,0,9.626,0Z" transform="translate(5 5)" fill="#9097a5"/>
  <path id="Path-2" data-name="Path" d="M.228,6.769A16.169,16.169,0,0,0,3.375,10L5.967,7.546a3.279,3.279,0,0,1,.7-3.888,3.753,3.753,0,0,1,4.106-.664L13,.885A8.779,8.779,0,0,0,9.22,0C4.634,0,1.4,3.764.224,5.383a1.176,1.176,0,0,0,0,1.385Z" transform="translate(0 3)" fill="#9097a5"/>
  <path id="Path-3" data-name="Path" d="M.381,17a.381.381,0,0,1-.352-.25.423.423,0,0,1,.083-.441L15.345.124a.366.366,0,0,1,.37-.11A.393.393,0,0,1,15.988.3a.422.422,0,0,1-.1.394L.65,16.881A.37.37,0,0,1,.381,17Z" transform="translate(1)" fill="#9097a5"/>
</svg>
