<svg xmlns="http://www.w3.org/2000/svg" width="230" height="96.132" viewBox="0 0 230 96.132">
  <g id="Group_23" data-name="Group 23" transform="translate(-74 -131.868)">
    <text id="AutoMechanic" transform="translate(74 223)" fill="#22b0fc" font-size="28" font-family="SingaporeSling, Singapore Sling"><tspan x="0" y="0" fill="#000">Auto</tspan><tspan y="0" fill="#22b0fc">Mechanic</tspan></text>
    <g id="_1181189_chat_wechat_icon" data-name="1181189_chat_wechat_icon" transform="translate(147.923 125.258)">
      <path id="Path_29" data-name="Path 29" d="M54.621,27.239c-6.753.353-12.626,2.4-17.393,7.025a20.655,20.655,0,0,0-6.415,17.5c-2.64-.327-5.044-.687-7.462-.89a4.635,4.635,0,0,0-2.533.429c-2.348,1.325-4.6,2.821-7.266,4.488.49-2.214.806-4.153,1.367-6.018a2.288,2.288,0,0,0-1.041-3.026C5.771,41.02,2.354,32.455,4.911,23.636c2.366-8.158,8.176-13.106,16.071-15.685,10.776-3.52,22.886.071,29.438,8.626A20.164,20.164,0,0,1,54.621,27.239ZM23.541,24.491a3.112,3.112,0,0,0-3-3.115A3.025,3.025,0,0,0,17.4,24.3a2.988,2.988,0,0,0,2.96,3.1A3.074,3.074,0,0,0,23.541,24.491Zm16.216-3.116a3.117,3.117,0,0,0-3.045,3.069,3.04,3.04,0,0,0,3.125,2.971,3.02,3.02,0,1,0-.08-6.04Z" transform="translate(0 0)" fill="#fc5a5a"/>
      <path id="Path_30" data-name="Path 30" d="M60.3,61.87c-2.138-.952-4.1-2.381-6.188-2.6s-4.267.983-6.444,1.206a21.533,21.533,0,0,1-17.467-5.7c-9.315-8.616-7.984-21.826,2.793-28.886,9.578-6.275,23.625-4.183,30.378,4.524,5.893,7.6,5.2,17.683-1.994,24.065-2.082,1.847-2.831,3.367-1.5,5.8A6.912,6.912,0,0,1,60.3,61.87ZM35.955,38.3a2.516,2.516,0,1,0,.018-5.032,2.516,2.516,0,1,0-.018,5.032Zm15.692-5.026a2.517,2.517,0,0,0-2.5,2.407,2.482,2.482,0,1,0,2.5-2.407Z" transform="translate(9.497 7.469)" fill="#22b0fc"/>
    </g>
  </g>
</svg>
