<svg xmlns="http://www.w3.org/2000/svg" width="130" height="153.483" viewBox="0 0 130 153.483">
  <g id="Group_40" data-name="Group 40" transform="translate(-123 -140.384)">
    <g id="undraw_mobile_login_re_9ntv" transform="translate(76 140.384)">
      <path id="Path_133" data-name="Path 133" d="M834.2,546.787a52.934,52.934,0,0,1-11.549,9.318c-.1.06-.2.117-.3.175l-6.91-6.116c.073-.067.153-.143.24-.226,5.148-4.889,30.708-39.07,32.411-47.394C847.973,503.237,849.627,530.432,834.2,546.787Z" transform="translate(-673.08 -419.924)" fill="#f0f0f0"/>
      <path id="Path_134" data-name="Path 134" d="M832.86,665.091c-.131.031-.264.06-.4.087l-5.184-4.588.355-.124c2.224-.788,8.849-3.165,15.441-5.873,7.084-2.911,14.133-6.2,15.649-8.307C858.4,646.775,848.381,661.62,832.86,665.091Z" transform="translate(-681.959 -527.731)" fill="#f0f0f0"/>
      <path id="Path_64" data-name="Path 64" d="M689.1,221.862h-.738V201.639a11.7,11.7,0,0,0-11.7-11.7H633.812a11.7,11.7,0,0,0-11.7,11.7V312.586a11.7,11.7,0,0,0,11.7,11.7h42.846a11.7,11.7,0,0,0,11.7-11.7V236.257h.738Z" transform="translate(-528.08 -185.467)" fill="#3f3d56"/>
      <path id="Path_65" data-name="Path 65" d="M695.561,210.856V321.642a8.739,8.739,0,0,1-8.742,8.739H643.766a8.739,8.739,0,0,1-8.739-8.74V210.856a8.739,8.739,0,0,1,8.74-8.739h5.224a4.155,4.155,0,0,0,3.846,5.72h24.545a4.15,4.15,0,0,0,3.846-5.72h5.59A8.739,8.739,0,0,1,695.561,210.856Z" transform="translate(-537.77 -194.604)" fill="#fff"/>
      <path id="Path_66" data-name="Path 66" d="M702.57,448.622H664.728a2.5,2.5,0,0,1-2.5-2.5v-1.244a2.5,2.5,0,0,1,2.5-2.5H702.57a2.5,2.5,0,0,1,2.5,2.5v1.244A2.5,2.5,0,0,1,702.57,448.622Z" transform="translate(-558.171 -374.8)" fill="#f0f0f0"/>
      <path id="Path_67" data-name="Path 67" d="M702.57,491.529H664.728a2.5,2.5,0,0,1-2.5-2.5v-1.244a2.5,2.5,0,0,1,2.5-2.5H702.57a2.5,2.5,0,0,1,2.5,2.5v1.244A2.5,2.5,0,0,1,702.57,491.529Z" transform="translate(-558.171 -406.98)" fill="#f0f0f0"/>
      <path id="Path_68" data-name="Path 68" d="M709.766,438.276H671.925a2.628,2.628,0,0,1-2.625-2.625v-1.244a2.628,2.628,0,0,1,2.625-2.625h37.842a2.628,2.628,0,0,1,2.625,2.625v1.244A2.628,2.628,0,0,1,709.766,438.276Zm-37.842-5.994a2.127,2.127,0,0,0-2.125,2.125v1.244a2.127,2.127,0,0,0,2.125,2.125h37.842a2.127,2.127,0,0,0,2.125-2.125v-1.244a2.127,2.127,0,0,0-2.125-2.125Z" transform="translate(-563.475 -366.853)" fill="#3f3d56"/>
      <path id="Path_69" data-name="Path 69" d="M709.766,481.183H671.925a2.628,2.628,0,0,1-2.625-2.625v-1.244a2.628,2.628,0,0,1,2.625-2.625h37.842a2.628,2.628,0,0,1,2.625,2.625v1.244A2.628,2.628,0,0,1,709.766,481.183Zm-37.842-5.994a2.127,2.127,0,0,0-2.125,2.125v1.244a2.127,2.127,0,0,0,2.125,2.125h37.842a2.127,2.127,0,0,0,2.125-2.125v-1.244a2.127,2.127,0,0,0-2.125-2.125Z" transform="translate(-563.475 -399.033)" fill="#3f3d56"/>
      <path id="Path_70" data-name="Path 70" d="M779.751,210.856v24.1a25.885,25.885,0,0,1-32.471-25.019q0-1.06.085-2.1h14.207a4.15,4.15,0,0,0,3.846-5.72h5.59A8.739,8.739,0,0,1,779.751,210.856Z" transform="translate(-621.96 -194.604)" fill="#f0f0f0"/>
      <path id="Path_71" data-name="Path 71" d="M656.781,651.418c0,.508-.019,1.01-.06,1.5H643.766a8.739,8.739,0,0,1-8.739-8.74V632.334a19.268,19.268,0,0,1,21.753,19.084Z" transform="translate(-537.77 -517.146)" fill="#22b0fc"/>
      <rect id="Rectangle_14" data-name="Rectangle 14" width="10.559" height="10.559" transform="matrix(0.794, 0.608, -0.608, 0.794, 74.838, 35.066)" fill="#f0f0f0"/>
      <path id="Path_82" data-name="Path 82" d="M346.645,186.283a8.487,8.487,0,0,1,6.819,3.426l4.9-6.4-14.695-11.239-11.239,14.695,6.333,4.844a8.5,8.5,0,0,1,7.883-5.322Z" transform="translate(-280.821 -172.066)" fill="#f0f0f0"/>
      <path id="Path_83" data-name="Path 83" d="M375.816,726.434H246.184c-.1,0-.184-.112-.184-.25s.082-.25.184-.25H375.816c.1,0,.184.112.184.25S375.918,726.434,375.816,726.434Z" transform="translate(-199 -587.467)" fill="#3f3d56"/>
      <path id="Path_84" data-name="Path 84" d="M719.291,543.27H701.325a2.5,2.5,0,0,1-2.5-2.5v-1.244a2.5,2.5,0,0,1,2.5-2.5h17.966a2.5,2.5,0,0,1,2.5,2.5v1.244A2.5,2.5,0,0,1,719.291,543.27Z" transform="translate(-585.619 -445.785)" fill="#22b0fc"/>
      <path id="Path_85" data-name="Path 85" d="M726.487,532.924H708.522A2.628,2.628,0,0,1,705.9,530.3v-1.244a2.628,2.628,0,0,1,2.625-2.625h17.966a2.628,2.628,0,0,1,2.625,2.625V530.3A2.628,2.628,0,0,1,726.487,532.924Zm-17.966-5.994a2.127,2.127,0,0,0-2.125,2.125V530.3a2.127,2.127,0,0,0,2.125,2.125h17.966a2.127,2.127,0,0,0,2.125-2.125v-1.244a2.127,2.127,0,0,0-2.125-2.125Z" transform="translate(-590.923 -437.839)" fill="#3f3d56"/>
    </g>
    <g id="Group_39" data-name="Group 39">
      <path id="Path_54" data-name="Path 54" d="M301.764,743.113h2.724l1.3-10.507h-4.02Z" transform="translate(-138.02 -451.886)" fill="#9e616a"/>
      <path id="Path_55" data-name="Path 55" d="M513.784,827.321h.767l2.994-1.217,1.6,1.217h0a3.419,3.419,0,0,1,3.419,3.419v.111h-8.784Z" transform="translate(-350.734 -536.983)" fill="#2f2e41"/>
      <path id="Path_56" data-name="Path 56" d="M206.764,743.113h2.724l1.3-10.507h-4.02Z" transform="translate(-59.452 -451.886)" fill="#9e616a"/>
      <path id="Path_57" data-name="Path 57" d="M418.784,827.321h.767l2.994-1.217,1.6,1.217h0a3.419,3.419,0,0,1,3.419,3.419v.111h-8.784Z" transform="translate(-272.166 -536.983)" fill="#2f2e41"/>
      <path id="Path_58" data-name="Path 58" d="M204.232,489.21l-1.8,10.853.605,34.887h4.431l6.808-36.9,4.9,36.3,4.456-.193,2.224-36.637-2-9.352Z" transform="translate(-55.869 -249.724)" fill="#2f2e41"/>
      <g id="Group_38" data-name="Group 38" transform="translate(0 4)">
        <g id="Group_37" data-name="Group 37" transform="translate(101.299 -42.394) rotate(22)">
          <path id="Path_51" data-name="Path 51" d="M399.928,477.089a2.089,2.089,0,0,0-2.445-2.069l-3.594-6.494-1.789,3.417,3.687,5.643a2.1,2.1,0,0,0,4.141-.5Z" transform="translate(-250.098 -241.258)" fill="#9e616a"/>
          <path id="Path_52" data-name="Path 52" d="M371.6,365.143l-3.7-.259s-.455-.062-1.707,1.923-5.543,12.052-5.543,12.052l7.518,10.912,2.442-2.431-4.365-8.781,4.184-5.877Z" transform="translate(-224.087 -155.542)" fill="#cacaca"/>
          <path id="Path_53" data-name="Path 53" d="M617.38,411.677a1.813,1.813,0,0,1-2.427-1.356l-6.375-.939,2.231-2.5,5.712,1.274a1.823,1.823,0,0,1,.86,3.517Z" transform="translate(-429.131 -190.279)" fill="#9e616a"/>
          <path id="Path_59" data-name="Path 59" d="M423.734,336.655l-4.743-.7-1.008-2.618-6.682-.009-1.5,3.419-6.828,2.062,5.657,19.433s-3.118,7.222-2.351,7.253a1.038,1.038,0,0,1,.61,1.7c-.535.576-1.608.21-1.071,1.085a4.086,4.086,0,0,1,.6,1.563s22.625,4.83,21.371-1.4c-.156-.774-2.046-11.5-2.046-11.5s1.646-1.822.943-2.545-.332-8.369-.332-8.369Z" transform="translate(-259.089 -129.445)" fill="#cacaca"/>
          <path id="Path_60" data-name="Path 60" d="M302.483,308.477l.776-.849,10.546,6.184,8.924,3.559.173,3.114L311.313,319.1l-8.2-4.011Z" transform="translate(-138.614 -100.418)" fill="#cacaca"/>
          <path id="Path_61" data-name="Path 61" d="M448.158,263.265a5.583,5.583,0,0,1-5.583,5.583,5.733,5.733,0,0,1-1.306-.153,5.585,5.585,0,1,1,6.888-5.43Z" transform="translate(-287.221 -66.881)" fill="#9e616a"/>
          <path id="Path_62" data-name="Path 62" d="M439.8,254.885l-4.01.773a2.6,2.6,0,0,1-1.146.048,2.36,2.36,0,0,1-1.3-1.243,11.775,11.775,0,0,1-1.253-8.27c.137-.622.43-1.334,1.054-1.461a1.166,1.166,0,0,0,.53-.139.487.487,0,0,0-.066-.713,1.411,1.411,0,0,0-.765-.249,1.935,1.935,0,0,1,1.431-.681l-1.072-.6a2.24,2.24,0,0,1,1.82-.171,12.172,12.172,0,0,0,1.822.476,10.936,10.936,0,0,0,2.345-.276,6.148,6.148,0,0,1,5.939,2.956,2.669,2.669,0,0,1,.394,1.112,1.278,1.278,0,0,1-.4,1.074c-.439.369-1.131.315-1.556.7a1.7,1.7,0,0,0-.428,1.218,3.332,3.332,0,0,1-.187,1.3.866.866,0,0,1-1.079.5.983.983,0,0,0-1.184-.822,1.558,1.558,0,0,0-1.086,1.126,4.041,4.041,0,0,0-.041,1.63,6.31,6.31,0,0,1,.079,1.636" transform="translate(-282.955 -53.974)" fill="#2f2e41"/>
        </g>
      </g>
    </g>
    <path id="Icon_awesome-key" data-name="Icon awesome-key" d="M24.19,8.315a8.32,8.32,0,0,1-9.866,8.17l-1.134,1.276a1.134,1.134,0,0,1-.847.381H10.583v1.89a1.134,1.134,0,0,1-1.134,1.134H7.559v1.89A1.134,1.134,0,0,1,6.425,24.19H1.134A1.134,1.134,0,0,1,0,23.056V19.368a1.134,1.134,0,0,1,.332-.8l7.644-7.644A8.316,8.316,0,1,1,24.19,8.315ZM15.874,6.047A2.268,2.268,0,1,0,18.142,3.78,2.268,2.268,0,0,0,15.874,6.047Z" transform="translate(191.31 175.07)" fill="#22b0fc"/>
  </g>
</svg>
