<svg xmlns="http://www.w3.org/2000/svg" width="262.854" height="221.423" viewBox="0 0 262.854 221.423">
  <g id="Group_1" data-name="Group 1" transform="translate(-57 -147.577)">
    <g id="undraw_online_discussion_-5-wgl" transform="translate(57 147.577)">
      <path id="Path_1" data-name="Path 1" d="M220.588,159.448l1.119,92.314,48.351,23.552L268.939,183Z" transform="translate(-160.327 -115.89)" fill="#f2f2f2"/>
      <path id="Path_2" data-name="Path 2" d="M70.682,132.454l-36.129,74.17L83.575,230.5l-1.119-92.314Z" transform="translate(-25.114 -96.27)" fill="#f2f2f2"/>
      <path id="Path_3" data-name="Path 3" d="M702.579,387.407,605,339.875l1.119,92.314,60.331,29.388Z" transform="translate(-439.724 -247.027)" fill="#f2f2f2"/>
      <path id="Path_4" data-name="Path 4" d="M413.579,245.662l1.119,92.313,48.351,23.552-1.119-92.314Z" transform="translate(-300.596 -178.551)" fill="#f2f2f2"/>
      <rect id="Rectangle_1" data-name="Rectangle 1" width="6.076" height="7.812" transform="translate(216.044 71.278) rotate(-2.221)" fill="#22b0fc"/>
      <path id="Path_5" data-name="Path 5" d="M809.693,410.636s-8.408-4.017-8.274-.548,8.476,5.752,8.476,5.752Z" transform="translate(-614.967 -312.254)" fill="#ffb9b9"/>
      <path id="Path_6" data-name="Path 6" d="M828.243,510.957s-3.967,9.709-5.433,16.716-3.7,16.648-.827,23.487,11.034,26.936,11.119,29.1-.7,4.371,1.036,4.3,11.175-3.039,11.558-4.357-3.221-4.653-3.221-4.653l-8.9-27.887,9.286-18.168,6.7,27.1,1.312,33.828s6.438-1.987,7.373-.286c0,0,2.885-4.021,3.251-5.773s-1.362-35.129-1.362-35.129,5.91-38.017,1.139-37.832S837.814,500.162,828.243,510.957Z" transform="translate(-628.904 -383.219)" fill="#2f2e41"/>
      <path id="Path_7" data-name="Path 7" d="M852.008,778.46s-4.4,9.726-4.817,10.177-3.285,4.905-1.116,4.821,7.289-2.454,11.057-6.075,8.738-9.894,8.287-10.311a25.581,25.581,0,0,0-3.537-1.6Z" transform="translate(-646.84 -578.846)" fill="#2f2e41"/>
      <path id="Path_8" data-name="Path 8" d="M930.235,804.083s-.266,4.354-1.066,6.122-.7,4.37,1.469,4.286,7.773-1.17,7.773-1.17.333-2.619-.118-3.036-2.37-5.12-1.553-6.455S930.235,804.083,930.235,804.083Z" transform="translate(-707.485 -599.07)" fill="#2f2e41"/>
      <path id="Path_9" data-name="Path 9" d="M929.293,288.992s4.623,7.2,6.425,8.872-3.268,5.339-3.268,5.339l-9.074,1.221s.114-8.257-.353-9.108S929.293,288.992,929.293,288.992Z" transform="translate(-703.335 -225.265)" fill="#ffb9b9"/>
      <path id="Path_10" data-name="Path 10" d="M891.5,318.22s1.869,3.4,3.6,3.335,10.708-3.89,11.091-5.208,2.972,9.44,2.972,9.44l-21.956,38.639-5.356-3.7,2.595-22.686,2.131-12.244Z" transform="translate(-673.434 -245.066)" fill="#22b0fc"/>
      <path id="Path_11" data-name="Path 11" d="M877.668,345.856a12.149,12.149,0,0,0-1.347,5.7c0,.087.007.173.014.26.208,4.014,1.687,8.656,2.217,12.032.385,2.422.275,4.189-1.142,4.6-3.436,1,.5,1.718-12.792,6.143s-15.613.605-15.646-.262,1.882-7.457,1.432-7.874-6.3,5.456-8.072,4.656-.2-5.2-.2-5.2,3.984-9.276,3.9-11.444,6.034-12.4,6.034-12.4l4.162-27.09s1.6-3.537,3.752-4.055a5.33,5.33,0,0,1,3.937.716l-3.6,7.958-3.8,14.046.635,5.187s4.417-9.292,7.319-12.88,9.087-12.08,9.087-12.08,1.444-4.873.354-6.329,4.548-1.679,6.951,4.308c1.274,3.173,3.343,7.906,4.638,12.312,1.155,3.9,1.7,7.552.556,9.638C884.309,336.99,879.911,341.178,877.668,345.856Z" transform="translate(-644.092 -238.122)" fill="#575a89"/>
      <path id="Path_12" data-name="Path 12" d="M977.666,377.454c-1.749,3.186-6.147,7.375-8.389,12.053-.586-2.11-1.3-4.293-1.3-4.293s-2.74-14.661,5.365-18.45a5.425,5.425,0,0,1,3.768,1.053C978.264,371.72,978.81,375.368,977.666,377.454Z" transform="translate(-735.7 -281.772)" opacity="0.1"/>
      <path id="Path_13" data-name="Path 13" d="M840.564,402.583l-6.872,2-9.541.37-.981,8.291,15.68,1.129S842.766,403.366,840.564,402.583Z" transform="translate(-630.776 -307.825)" fill="#575a89"/>
      <path id="Path_14" data-name="Path 14" d="M908.156,504.623s-9.193,1.525-7.095,4.292,10.242-.142,10.242-.142Z" transform="translate(-687.163 -381.99)" fill="#ffb9b9"/>
      <path id="Path_15" data-name="Path 15" d="M933.067,471.9c.208,4.014,1.687,8.656,2.217,12.032-2.929,2.772-5.714,5.217-6.763,5.257-2.168.084-5.655-.215-6.939.269s-2.037-7.739-2.037-7.739a7.112,7.112,0,0,1,4.186-4.071A47.616,47.616,0,0,0,933.067,471.9Z" transform="translate(-700.823 -358.203)" opacity="0.1"/>
      <path id="Path_16" data-name="Path 16" d="M938.095,357.227s7.339-1.153,6.943,11.024.774,19.95-2.178,22.236-12.54,12.648-14.708,12.732-5.655-.215-6.939.269-2.037-7.739-2.037-7.739a7.112,7.112,0,0,1,4.186-4.071c3.419-1.436,11.474-6.526,11.407-8.26s-2.038-7.739-2.038-7.739S929.989,361.016,938.095,357.227Z" transform="translate(-700.554 -274.838)" fill="#575a89"/>
      <circle id="Ellipse_1" data-name="Ellipse 1" cx="9.548" cy="9.548" r="9.548" transform="translate(209.938 55.298)" fill="#ffb9b9"/>
      <path id="Path_17" data-name="Path 17" d="M885.289,237.864a1.844,1.844,0,0,1-.8.4.573.573,0,0,1-.664-.46,2.381,2.381,0,0,1-.911,1.168c-.446.232-1.136.038-1.2-.461a2.1,2.1,0,0,1-.484,1.023.726.726,0,0,1-1.02.034,26.21,26.21,0,0,1,.136,3.249,4.136,4.136,0,0,0,1.169,2.944c1.194,1.039,2.989.783,4.559.586a1.383,1.383,0,0,1,.714.039c.588.25.561,1.069.569,1.708a4.746,4.746,0,0,0,4.156,4.507,2.379,2.379,0,0,0,1.768-.432c.446-.378.674-.994,1.184-1.278.831-.462,1.839.212,2.447.943s1.206,1.631,2.148,1.765c1.245.177,2.193-1.092,2.658-2.26a13.174,13.174,0,0,0-.262-10.236C898.854,235.44,889.975,234.543,885.289,237.864Z" transform="translate(-672.232 -186.703)" fill="#2f2e41"/>
      <circle id="Ellipse_2" data-name="Ellipse 2" cx="19.669" cy="19.669" r="19.669" transform="translate(142.86 19.688)" fill="#22b0fc"/>
      <path id="Path_18" data-name="Path 18" d="M622.433,92.9c4.532,4.648,11.493,5.211,11.493,5.211s-.386-6.974-4.918-11.622-11.493-5.211-11.493-5.211S617.9,88.252,622.433,92.9Z" transform="translate(-481.303 -74.295)" fill="#3f3d56"/>
      <path id="Path_19" data-name="Path 19" d="M607.705,113.722c6.268,1.691,10.153,7.494,10.153,7.494s-6.277,3.063-12.545,1.372-10.153-7.494-10.153-7.494S601.438,112.031,607.705,113.722Z" transform="translate(-465.055 -97.506)" fill="#22b0fc"/>
      <path id="Path_20" data-name="Path 20" d="M663.6,67.5c.042,6.492,4.667,11.725,4.667,11.725s4.558-5.292,4.516-11.784-4.667-11.725-4.667-11.725S663.563,61.008,663.6,67.5Z" transform="translate(-514.801 -55.716)" fill="#3f3d56"/>
      <path id="Path_21" data-name="Path 21" d="M646.517,75.894c3.344,5.565,2.118,12.441,2.118,12.441s-6.646-2.146-9.99-7.711-2.118-12.441-2.118-12.441S643.173,70.33,646.517,75.894Z" transform="translate(-494.962 -64.778)" fill="#22b0fc"/>
      <circle id="Ellipse_3" data-name="Ellipse 3" cx="10.108" cy="10.108" r="10.108" transform="translate(150.641 27.74)" fill="#f2f2f2"/>
      <circle id="Ellipse_4" data-name="Ellipse 4" cx="3.278" cy="3.278" r="3.278" transform="translate(152.74 37.696)" fill="#3f3d56"/>
      <circle id="Ellipse_5" data-name="Ellipse 5" cx="19.669" cy="19.669" r="19.669" transform="translate(37.153 174.54)" fill="#22b0fc"/>
      <path id="Path_22" data-name="Path 22" d="M294.105,628.76c1.7,6.267,7.5,10.148,7.5,10.148s3.058-6.279,1.363-12.546-7.5-10.148-7.5-10.148S292.41,622.493,294.105,628.76Z" transform="translate(-245.871 -463.096)" fill="#3f3d56"/>
      <path id="Path_23" data-name="Path 23" d="M273.655,644.148c4.652,4.528,5.22,11.49,5.22,11.49s-6.974-.381-11.626-4.909-5.22-11.49-5.22-11.49S269,639.62,273.655,644.148Z" transform="translate(-222.93 -479.831)" fill="#22b0fc"/>
      <path id="Path_24" data-name="Path 24" d="M326.868,632.468c-3.124,5.691-1.632,12.514-1.632,12.514s6.558-2.4,9.682-8.094,1.632-12.514,1.632-12.514S329.992,626.777,326.868,632.468Z" transform="translate(-268.611 -469.027)" fill="#3f3d56"/>
      <path id="Path_25" data-name="Path 25" d="M317.707,625.915c.211,6.489-4.207,11.9-4.207,11.9s-4.761-5.11-4.972-11.6,4.207-11.9,4.207-11.9S317.5,619.426,317.707,625.915Z" transform="translate(-256.721 -461.716)" fill="#22b0fc"/>
      <circle id="Ellipse_6" data-name="Ellipse 6" cx="10.108" cy="10.108" r="10.108" transform="translate(45.895 181.916)" fill="#f2f2f2"/>
      <circle id="Ellipse_7" data-name="Ellipse 7" cx="3.278" cy="3.278" r="3.278" transform="translate(56.002 183.828)" fill="#3f3d56"/>
      <rect id="Rectangle_2" data-name="Rectangle 2" width="102.443" height="0.546" transform="translate(2.732 213.605)" fill="#2f2e41"/>
      <rect id="Rectangle_3" data-name="Rectangle 3" width="102.443" height="0.546" transform="translate(153.802 214.698)" fill="#2f2e41"/>
      <path id="Path_26" data-name="Path 26" d="M183.732,676.285l-.486-.251c6.306-12.191,2.934-28.022-1-39.156a120.006,120.006,0,0,0-10.184-21.493l.462-.292a120.619,120.619,0,0,1,10.237,21.6C186.732,647.932,190.127,663.921,183.732,676.285Z" transform="translate(-157.537 -462.281)" fill="#2f2e41"/>
      <rect id="Rectangle_4" data-name="Rectangle 4" width="19.718" height="0.546" transform="translate(27.326 172.307) rotate(-79.645)" fill="#2f2e41"/>
      <rect id="Rectangle_5" data-name="Rectangle 5" width="0.547" height="26.868" transform="matrix(0.732, -0.681, 0.681, 0.732, 6.903, 169.808)" fill="#2f2e41"/>
      <rect id="Rectangle_6" data-name="Rectangle 6" width="15.847" height="0.546" transform="matrix(0.586, -0.81, 0.81, 0.586, 30.923, 203.886)" fill="#2f2e41"/>
      <circle id="Ellipse_8" data-name="Ellipse 8" cx="2.732" cy="2.732" r="2.732" transform="translate(29.777 142.304)" fill="#22b0fc"/>
      <circle id="Ellipse_9" data-name="Ellipse 9" cx="2.732" cy="2.732" r="2.732" transform="translate(0 163.339)" fill="#3f3d56"/>
      <circle id="Ellipse_10" data-name="Ellipse 10" cx="2.732" cy="2.732" r="2.732" transform="translate(12.02 166.071)" fill="#3f3d56"/>
      <circle id="Ellipse_11" data-name="Ellipse 11" cx="2.732" cy="2.732" r="2.732" transform="translate(6.556 176.725)" fill="#22b0fc"/>
      <circle id="Ellipse_12" data-name="Ellipse 12" cx="2.732" cy="2.732" r="2.732" transform="translate(40.704 183.555)" fill="#3f3d56"/>
      <circle id="Ellipse_13" data-name="Ellipse 13" cx="2.732" cy="2.732" r="2.732" transform="translate(31.689 186.56)" fill="#3f3d56"/>
      <circle id="Ellipse_14" data-name="Ellipse 14" cx="2.732" cy="2.732" r="2.732" transform="translate(37.972 195.302)" fill="#3f3d56"/>
      <circle id="Ellipse_15" data-name="Ellipse 15" cx="2.732" cy="2.732" r="2.732" transform="translate(9.288 145.582)" fill="#3f3d56"/>
      <rect id="Rectangle_7" data-name="Rectangle 7" width="131.674" height="78.95" transform="translate(55.892 48.965)" fill="#3f3d56"/>
      <circle id="Ellipse_16" data-name="Ellipse 16" cx="1.366" cy="1.366" r="1.366" transform="translate(59.717 50.604)" fill="#22b0fc"/>
      <circle id="Ellipse_17" data-name="Ellipse 17" cx="1.366" cy="1.366" r="1.366" transform="translate(64.634 50.604)" fill="#22b0fc"/>
      <circle id="Ellipse_18" data-name="Ellipse 18" cx="1.366" cy="1.366" r="1.366" transform="translate(69.551 50.604)" fill="#22b0fc"/>
      <rect id="Rectangle_8" data-name="Rectangle 8" width="131.564" height="0.546" transform="translate(56.002 55.025)" fill="#2f2e41"/>
      <path id="Path_27" data-name="Path 27" d="M366.4,260.24v24.586h-35.74l-6.6,7.922.754-7.922H321.6V260.24Z" transform="translate(-233.742 -189.147)" fill="#22b0fc"/>
      <rect id="Rectangle_9" data-name="Rectangle 9" width="16.118" height="16.118" transform="translate(116.539 79.562)" opacity="0.1"/>
      <path id="Path_28" data-name="Path 28" d="M439.6,304.24h44.8v24.586h-3.213l.755,7.922-6.6-7.922H439.6Z" transform="translate(-319.507 -221.127)" fill="#22b0fc"/>
      <ellipse id="Ellipse_19" data-name="Ellipse 19" cx="9.835" cy="0.959" rx="9.835" ry="0.959" transform="translate(80.752 105.647)" opacity="0.1"/>
      <ellipse id="Ellipse_20" data-name="Ellipse 20" cx="11.2" cy="1.093" rx="11.2" ry="1.093" transform="translate(151.233 118.354)" opacity="0.1"/>
    </g>
    <text id="Forum" transform="translate(165 365)" fill="#22b0fc" font-size="12" font-family="Poppins-Regular, Poppins"><tspan x="0" y="0">FORUM</tspan></text>
  </g>
</svg>
