<svg xmlns="http://www.w3.org/2000/svg" width="10" height="9.286" viewBox="0 0 10 9.286">
  <path id="Icon_ionic-ios-star" data-name="Icon ionic-ios-star" d="M11.871,6.589H8.587l-1-2.978a.362.362,0,0,0-.679,0l-1,2.978H2.607a.358.358,0,0,0-.357.357.262.262,0,0,0,.007.06.343.343,0,0,0,.15.252l2.7,1.9L4.069,12.172a.358.358,0,0,0,.123.4.345.345,0,0,0,.2.087.438.438,0,0,0,.223-.08L7.25,10.7,9.884,12.58a.418.418,0,0,0,.223.08.321.321,0,0,0,.2-.087.354.354,0,0,0,.123-.4L9.393,9.161l2.676-1.92.065-.056a.341.341,0,0,0-.263-.6Z" transform="translate(-2.25 -3.375)" fill="#8c97ac"/>
</svg>
