<svg id="Icon_ionic-ios-chatbubbles" data-name="Icon ionic-ios-chatbubbles" xmlns="http://www.w3.org/2000/svg" width="18.395" height="18.394" viewBox="0 0 18.395 18.394">
  <g id="Path_1" data-name="Path 1" transform="translate(-4.491 -3.375)" fill="none">
    <path d="M21.49,14.907a1.025,1.025,0,0,1,.14-.516,1.425,1.425,0,0,1,.089-.131,6.854,6.854,0,0,0,1.168-3.82,7.2,7.2,0,0,0-7.348-7.064A7.3,7.3,0,0,0,8.334,9a6.8,6.8,0,0,0-.157,1.447A7.176,7.176,0,0,0,15.411,17.6a8.712,8.712,0,0,0,2-.326c.478-.131.952-.3,1.074-.351a1.118,1.118,0,0,1,.393-.072,1.1,1.1,0,0,1,.427.085l2.4.85a.572.572,0,0,0,.165.042.337.337,0,0,0,.338-.338.543.543,0,0,0-.021-.114Z" stroke="none"/>
    <path d="M 15.41097927093506 16.09690856933594 C 15.83047866821289 16.09690856933594 16.51675987243652 15.96015930175781 17.01076889038086 15.82463932037354 C 17.38185882568359 15.72282886505127 17.78747940063477 15.57926940917969 17.95014953613281 15.51756954193115 C 18.24234962463379 15.40673923492432 18.56233978271484 15.34815883636475 18.8754997253418 15.34815883636475 C 19.20804977416992 15.34815883636475 19.53072929382324 15.40935897827148 19.83540725708008 15.5301342010498 L 20.13704299926758 15.63706398010254 L 19.98975944519043 15.11346912384033 L 19.98975944519043 14.90650939941406 C 19.98975944519043 14.46642303466797 20.10535430908203 14.03271102905273 20.32424926757812 13.65094470977783 C 20.38519477844238 13.54240417480469 20.44419288635254 13.46122550964355 20.4803295135498 13.41150951385498 L 20.48360443115234 13.40699863433838 C 21.07386589050293 12.51753234863281 21.38572883605957 11.49185276031494 21.38573837280273 10.43453884124756 C 21.39038848876953 9.006169319152832 20.82368850708008 7.648419380187988 19.79002952575684 6.611399173736572 C 18.67392921447754 5.491669178009033 17.163818359375 4.874999046325684 15.53787899017334 4.874999046325684 C 12.76960945129395 4.874999046325684 10.35645866394043 6.741919040679932 9.799979209899902 9.313919067382812 C 9.717458724975586 9.695619583129883 9.677338600158691 10.06515884399414 9.677338600158691 10.44364929199219 C 9.677338600158691 11.94490909576416 10.26390933990479 13.35849952697754 11.32898902893066 14.42400932312012 C 12.40733909606934 15.50279903411865 13.85701942443848 16.09690856933594 15.41097927093506 16.09690856933594 M 21.86624908447266 17.82533836364746 C 21.80278968811035 17.82533836364746 21.70126914978027 17.78303909301758 21.70126914978027 17.78303909301758 L 19.30274963378906 16.93276977539062 C 19.1716194152832 16.87777900695801 19.02778816223145 16.84815979003906 18.8754997253418 16.84815979003906 C 18.74013900756836 16.84815979003906 18.60476875305176 16.87354850769043 18.48208808898926 16.92007827758789 C 18.35941886901855 16.96660995483398 17.88563919067383 17.14004898071289 17.40761947631836 17.27118873596191 C 16.92960929870605 17.40231895446777 16.05818939208984 17.59690856933594 15.41097927093506 17.59690856933594 C 11.34152889251709 17.59690856933594 8.177338600158691 14.34811878204346 8.177338600158691 10.44364929199219 C 8.177338600158691 9.944489479064941 8.232338905334473 9.466479301452637 8.333859443664551 8.996929168701172 C 9.027608871459961 5.790439128875732 11.98874855041504 3.374999284744263 15.53787899017334 3.374999284744263 C 19.60732841491699 3.374999284744263 22.89841842651367 6.539189338684082 22.88572883605957 10.43941879272461 C 22.88572883605957 11.84384918212891 22.45423889160156 13.15943908691406 21.71818923950195 14.2592887878418 C 21.68857955932617 14.301589012146 21.65473937988281 14.3438892364502 21.62935829162598 14.39041900634766 C 21.54051971435547 14.54270935058594 21.48975944519043 14.72037887573242 21.48975944519043 14.90650939941406 L 22.18350982666016 17.37270927429199 C 22.18350982666016 17.37270927429199 22.20466804504395 17.44462013244629 22.20466804504395 17.48691940307617 C 22.20466804504395 17.67727851867676 22.0523796081543 17.82533836364746 21.86624908447266 17.82533836364746 Z" stroke="none" fill="#8c97ac"/>
  </g>
  <path id="Path_2" data-name="Path 2" d="M14.818,21.743c-.152.042-.347.089-.558.135a7.807,7.807,0,0,1-1.438.19,7.176,7.176,0,0,1-7.234-7.153,8,8,0,0,1,.063-.905c.025-.182.055-.364.1-.541s.093-.381.148-.567l-.338.3a6.3,6.3,0,0,0-2.183,4.734,6.225,6.225,0,0,0,1.049,3.469c.1.148.152.262.135.338s-.5,2.623-.5,2.623a.339.339,0,0,0,.114.326.345.345,0,0,0,.216.076.3.3,0,0,0,.123-.025l2.373-.935a.661.661,0,0,1,.241-.047.668.668,0,0,1,.267.055,7.12,7.12,0,0,0,2.568.508,6.644,6.644,0,0,0,5.08-2.331s.135-.186.292-.406C15.173,21.642,15,21.7,14.818,21.743Z" transform="translate(-3.375 -6.374)" fill="#8c97ac"/>
</svg>
