<svg xmlns="http://www.w3.org/2000/svg" width="18.288" height="17.34" viewBox="0 0 18.288 17.34">
  <g id="Icon_ionic-ios-chatbubbles" data-name="Icon ionic-ios-chatbubbles" transform="translate(-1.221)">
    <g id="Path_1" data-name="Path 1" transform="translate(-4.369 -3.375)" fill="none">
      <path d="M22.388,15.684a1.094,1.094,0,0,1,.149-.551,1.521,1.521,0,0,1,.095-.14,7.317,7.317,0,0,0,1.246-4.077,7.681,7.681,0,0,0-7.843-7.541,7.789,7.789,0,0,0-7.69,6,7.256,7.256,0,0,0-.167,1.544A7.66,7.66,0,0,0,15.9,18.556a9.3,9.3,0,0,0,2.131-.348c.51-.14,1.016-.325,1.147-.375a1.194,1.194,0,0,1,.42-.077,1.174,1.174,0,0,1,.456.09l2.56.908a.611.611,0,0,0,.176.045.359.359,0,0,0,.361-.361.58.58,0,0,0-.023-.122Z" stroke="none"/>
      <path d="M 15.89883041381836 17.25607109069824 C 16.37466049194336 17.25607109069824 17.13939094543457 17.10470008850098 17.68621063232422 16.95469093322754 C 18.1949405670166 16.81513023376465 18.69499015808105 16.62607192993164 18.71603012084961 16.61809158325195 C 18.99418067932129 16.5125904083252 19.29882049560547 16.45682144165039 19.59700965881348 16.45682144165039 C 19.91560554504395 16.45682144165039 20.22443389892578 16.51568222045898 20.51568794250488 16.63185882568359 L 21.3909854888916 16.94215202331543 L 21.08757972717285 15.86358070373535 L 21.08757972717285 15.68421077728271 C 21.08757972717285 15.26645088195801 21.19747734069824 14.8547191619873 21.4055118560791 14.49241256713867 C 21.4622859954834 14.39120674133301 21.5190315246582 14.31313896179199 21.55372047424316 14.26541137695312 L 21.56137084960938 14.25481796264648 C 22.22634696960449 13.25476169586182 22.57769012451172 12.10063362121582 22.57769966125488 10.91163063049316 C 22.58292007446289 9.306301116943359 21.94680023193359 7.781130790710449 20.78652000427246 6.617061138153076 C 19.53823089599609 5.364710807800293 17.85052108764648 4.67500114440918 16.0342903137207 4.67500114440918 C 12.9385404586792 4.67500114440918 10.23884010314941 6.767701148986816 9.615050315856934 9.65083122253418 C 9.522390365600586 10.07939052581787 9.477340698242188 10.49466133117676 9.477340698242188 10.92038059234619 C 9.477340698242188 12.60331058502197 10.13477993011475 14.18784141540527 11.32855033874512 15.38209056854248 C 12.5365104675293 16.59055137634277 14.15960025787354 17.25607109069824 15.89883041381836 17.25607109069824 M 22.78946113586426 18.79990005493164 C 22.72171974182129 18.79990005493164 22.61334991455078 18.75475120544434 22.61334991455078 18.75475120544434 L 20.05307006835938 17.84713172912598 C 19.91308975219727 17.78843116760254 19.75955963134766 17.75682067871094 19.59700965881348 17.75682067871094 C 19.45251083374023 17.75682067871094 19.30801963806152 17.78392028808594 19.17707061767578 17.83359146118164 C 19.04611968994141 17.88326072692871 18.54039001464844 18.06839179992676 18.03013038635254 18.20837020874023 C 17.51988983154297 18.34835052490234 16.58969116210938 18.55607032775879 15.89883041381836 18.55607032775879 C 11.55493068695068 18.55607032775879 8.177340507507324 15.08817100524902 8.177340507507324 10.92038059234619 C 8.177340507507324 10.38755130767822 8.236040115356445 9.877301216125488 8.344420433044434 9.376080513000488 C 9.084959983825684 5.953341007232666 12.24580001831055 3.375000953674316 16.0342903137207 3.375000953674316 C 20.3781909942627 3.375000953674316 23.8912410736084 6.752581119537354 23.87768936157227 10.91586112976074 C 23.87768936157227 12.41500091552734 23.41711044311523 13.81932067871094 22.63141059875488 14.99335098266602 C 22.59980010986328 15.03850078582764 22.56368064880371 15.08366107940674 22.53659057617188 15.13333129882812 C 22.4417610168457 15.29589080810547 22.38758087158203 15.48553085327148 22.38758087158203 15.68421077728271 L 23.12812042236328 18.31674003601074 C 23.12812042236328 18.31674003601074 23.15069961547852 18.39351081848145 23.15069961547852 18.43866157531738 C 23.15069961547852 18.64186096191406 22.98814010620117 18.79990005493164 22.78946113586426 18.79990005493164 Z" stroke="none" fill="#fff"/>
    </g>
    <path id="Path_2" data-name="Path 2" d="M13.22,22.053c-3.711,0-7.405-3.571-7.405-7.205v-.914l-.14-.22c.023-.169-.174-.119-.135-.284s.085-.354.135-.528l-.309.28a5.895,5.895,0,0,0-1.034,7.636.515.515,0,0,1,.123.315C4.44,21.2,4,23.574,4,23.574a.32.32,0,0,0,.1.3.31.31,0,0,0,.2.071.272.272,0,0,0,.112-.024l2.164-.87a.591.591,0,0,1,.463.008,6.377,6.377,0,0,0,2.341.473C11.175,23.535,13.609,22.053,13.22,22.053Z" transform="translate(-1.504 -7.258)" fill="none" stroke="#fff" stroke-width="1.3"/>
  </g>
</svg>
