<svg xmlns="http://www.w3.org/2000/svg" width="132.83" height="140.13" viewBox="0 0 132.83 140.13">
  <g id="undraw_emails_re_cqen" transform="translate(0 -0.006)">
    <path id="Path_31" data-name="Path 31" d="M651.05,699.63l-8.265-5.275,10.766,3.082a74.29,74.29,0,0,0,11.717-15.413S647.154,670.963,636,673.915s-13.3,10.615-11.135,18.8,7.815,13.785,18.973,10.833A20.248,20.248,0,0,0,651.05,699.63Z" transform="translate(-553.523 -564.699)" fill="#f2f2f2"/>
    <path id="Path_32" data-name="Path 32" d="M648.567,732.828l-.55.146c-6.4,1.658-11.675,1.9-15.747.713-.06-.016-.117-.036-.177-.052l.082-.275.082-.263c4.414,1.344,9.994.756,15.578-.689.18-.045.364-.09.545-.141,2.358-.633,4.708-1.409,6.967-2.254.175-.064.353-.131.53-.2,2.975-1.131,5.777-2.367,8.192-3.513.171-.08.341-.163.509-.245,4.08-1.956,6.971-3.615,7.609-3.988.079-.044.121-.07.131-.076l.142.239,0,0,.143.242c-.01.006-.153.093-.422.246-1,.577-3.728,2.108-7.392,3.872-.166.079-.336.162-.507.242-1.959.932-4.162,1.92-6.5,2.859q-.881.355-1.743.68c-.177.07-.354.137-.529.2Q651.851,731.944,648.567,732.828Z" transform="translate(-560.127 -604.874)" fill="#fff"/>
    <path id="Path_33" data-name="Path 33" d="M812.678,705.67c-.073-.176-.146-.355-.215-.537a15.535,15.535,0,0,1-.485-1.515,15.112,15.112,0,0,1-.244-6.694l-.527-.231a15.673,15.673,0,0,0,.227,7.069,16.07,16.07,0,0,0,.521,1.616c.068.18.142.359.217.534a15.541,15.541,0,0,0,2.464,3.995l.35-.46A15.064,15.064,0,0,1,812.678,705.67Z" transform="translate(-708.011 -583.952)" fill="#fff"/>
    <path id="Path_34" data-name="Path 34" d="M764.417,700.4q-.091-.277-.165-.559c-.018-.056-.034-.116-.049-.174a15.194,15.194,0,0,1,3.108-13.722c-.189-.066-.379-.133-.57-.2a15.758,15.758,0,0,0-3.083,14.062c.02.076.04.152.063.228.053.19.108.376.166.562a15.674,15.674,0,0,0,4.967,7.324c.138-.13.275-.259.412-.392A15.09,15.09,0,0,1,764.417,700.4Z" transform="translate(-668.502 -574.897)" fill="#fff"/>
    <path id="Path_35" data-name="Path 35" d="M720.5,697.226c-.067-.186-.128-.374-.187-.562s-.122-.4-.176-.609A15.235,15.235,0,0,1,727,679.132c-.253-.064-.5-.129-.755-.188a15.793,15.793,0,0,0-6.652,17.255c.054.2.111.408.175.606s.118.38.182.567a15.746,15.746,0,0,0,7.561,8.75c.186-.11.368-.228.552-.347A15.186,15.186,0,0,1,720.5,697.226Z" transform="translate(-632.061 -569.272)" fill="#fff"/>
    <path id="Path_36" data-name="Path 36" d="M438.847,184.05,397.976,167.6a9.974,9.974,0,0,1-5.522-12.962L434.1,51.18a9.974,9.974,0,0,1,12.962-5.522l40.872,16.452a9.974,9.974,0,0,1,5.522,12.962L451.81,178.527a9.974,9.974,0,0,1-12.963,5.522Z" transform="translate(-361.343 -44.932)" fill="#3f3d56"/>
    <path id="Path_37" data-name="Path 37" d="M499.345,79.881,494.8,78.049a1.652,1.652,0,0,0-2.148.915,3.378,3.378,0,0,1-4.391,1.871l-22.251-8.956a3.378,3.378,0,0,1-1.871-4.391,1.652,1.652,0,0,0-.915-2.148l-4.011-1.615a7.566,7.566,0,0,0-9.831,4.188L408.03,170.634a7.566,7.566,0,0,0,4.188,9.831l40.136,16.156a7.566,7.566,0,0,0,9.831-4.188l41.347-102.72A7.566,7.566,0,0,0,499.345,79.881Z" transform="translate(-374.369 -60.018)" fill="#fff"/>
    <path id="Path_38" data-name="Path 38" d="M787.111,108.758l-12.553-5.053a.483.483,0,1,1,.361-.9l12.553,5.053a.483.483,0,0,1-.361.9Z" transform="translate(-677.699 -92.764)" fill="#fff"/>
    <circle id="Ellipse_21" data-name="Ellipse 21" cx="0.387" cy="0.387" r="0.387" transform="translate(111.179 15.953)" fill="#fff"/>
    <g id="Group_35" data-name="Group 35" transform="translate(-0.015 -24.015)">
      <circle id="Ellipse_24" data-name="Ellipse 24" cx="22.976" cy="22.976" r="22.976" transform="translate(65.452 54.194)" fill="#22b0fc"/>
      <g id="Group_34" data-name="Group 34" transform="translate(70.847 62.586)">
        <path id="Path_48" data-name="Path 48" d="M642.4,420.971,617.4,410.911a2.091,2.091,0,0,1-1.156-2.713l6-14.9a2.09,2.09,0,0,1,2.713-1.156L649.953,402.2a2.091,2.091,0,0,1,1.156,2.713l-6,14.9A2.091,2.091,0,0,1,642.4,420.971Zm-17.861-27.784a.958.958,0,0,0-1.243.53l-6,14.9a.959.959,0,0,0,.53,1.243l24.993,10.06a.959.959,0,0,0,1.244-.53l6-14.9a.958.958,0,0,0-.53-1.243Z" transform="translate(-616.097 -391.971)" fill="#fff"/>
        <path id="Path_49" data-name="Path 49" d="M661.459,411.435h0l-19.294-7.766a1.413,1.413,0,0,1-.881-1.362l.364-9.037a1.408,1.408,0,0,1,1.931-1.25l25.534,10.228a1.408,1.408,0,0,1,.786,1.822l.084.084-.8.8h0l-6.2,6.176A1.4,1.4,0,0,1,661.459,411.435Z" transform="translate(-635.01 -391.918)" fill="#fff"/>
        <path id="Path_50" data-name="Path 50" d="M636.624,457.523l-8.581-3.454a.859.859,0,1,1,.642-1.594l8.581,3.454a.859.859,0,0,1-.642,1.594Z" transform="translate(-624.664 -437.349)" fill="#fff"/>
        <circle id="Ellipse_25" data-name="Ellipse 25" cx="2.101" cy="2.101" r="2.101" transform="translate(14.276 13.347)" fill="#22b0fc"/>
      </g>
    </g>
    <path id="Path_39" data-name="Path 39" d="M905.837,318.937a.871.871,0,0,1-.482-1.132l6.352-15.781a.87.87,0,0,1,1.614.65l-6.352,15.781A.871.871,0,0,1,905.837,318.937Z" transform="translate(-786.07 -257.099)" fill="#3f3d56"/>
    <path id="Path_40" data-name="Path 40" d="M587.734,170.893a.871.871,0,0,1-.482-1.132l1.444-3.586a.87.87,0,1,1,1.614.65l-1.444,3.586A.871.871,0,0,1,587.734,170.893Z" transform="translate(-522.99 -144.747)" fill="#3f3d56"/>
    <path id="Path_41" data-name="Path 41" d="M572.294,209.252a.871.871,0,0,1-.482-1.132l1.444-3.586a.87.87,0,0,1,1.614.65l-1.444,3.586A.871.871,0,0,1,572.294,209.252Z" transform="translate(-510.221 -176.471)" fill="#3f3d56"/>
    <path id="Path_51" data-name="Path 51" d="M399.928,477.089a2.089,2.089,0,0,0-2.445-2.069l-3.594-6.494-1.789,3.417,3.687,5.643a2.1,2.1,0,0,0,4.141-.5Z" transform="translate(-361.646 -395.252)" fill="#9e616a"/>
    <path id="Path_52" data-name="Path 52" d="M371.6,365.143l-3.7-.259s-.455-.062-1.707,1.923-5.543,12.052-5.543,12.052l7.518,10.912,2.442-2.431-4.365-8.781,4.184-5.877Z" transform="translate(-335.635 -309.536)" fill="#cacaca"/>
    <path id="Path_53" data-name="Path 53" d="M617.38,411.677a1.813,1.813,0,0,1-2.427-1.356l-6.375-.939,2.231-2.5,5.712,1.274a1.823,1.823,0,0,1,.86,3.517Z" transform="translate(-540.679 -344.273)" fill="#9e616a"/>
    <path id="Path_54" data-name="Path 54" d="M301.764,743.113h2.724l1.3-10.507h-4.02Z" transform="translate(-249.567 -605.881)" fill="#9e616a"/>
    <path id="Path_55" data-name="Path 55" d="M513.784,827.321h.767l2.994-1.217,1.6,1.217h0a3.419,3.419,0,0,1,3.419,3.419v.111h-8.784Z" transform="translate(-462.282 -690.978)" fill="#2f2e41"/>
    <path id="Path_56" data-name="Path 56" d="M206.764,743.113h2.724l1.3-10.507h-4.02Z" transform="translate(-171 -605.881)" fill="#9e616a"/>
    <path id="Path_57" data-name="Path 57" d="M418.784,827.321h.767l2.994-1.217,1.6,1.217h0a3.419,3.419,0,0,1,3.419,3.419v.111h-8.784Z" transform="translate(-383.714 -690.978)" fill="#2f2e41"/>
    <path id="Path_58" data-name="Path 58" d="M204.232,489.21l-1.8,10.853.605,34.887h4.431l6.808-36.9,4.9,36.3,4.456-.193,2.224-36.637-2-9.352Z" transform="translate(-167.417 -403.719)" fill="#2f2e41"/>
    <path id="Path_59" data-name="Path 59" d="M423.734,336.655l-4.743-.7-1.008-2.618-6.682-.009-1.5,3.419-6.828,2.062,5.657,19.433s-3.118,7.222-2.351,7.253a1.038,1.038,0,0,1,.61,1.7c-.535.576-1.608.21-1.071,1.085a4.086,4.086,0,0,1,.6,1.563s22.625,4.83,21.371-1.4c-.156-.774-2.046-11.5-2.046-11.5s1.646-1.822.943-2.545-.332-8.369-.332-8.369Z" transform="translate(-370.636 -283.439)" fill="#cacaca"/>
    <path id="Path_60" data-name="Path 60" d="M302.483,308.477l.776-.849,10.546,6.184,8.924,3.559.173,3.114L311.313,319.1l-8.2-4.011Z" transform="translate(-250.162 -254.412)" fill="#cacaca"/>
    <path id="Path_61" data-name="Path 61" d="M448.158,263.265a5.583,5.583,0,0,1-5.583,5.583,5.733,5.733,0,0,1-1.306-.153,5.585,5.585,0,1,1,6.888-5.43Z" transform="translate(-398.769 -220.875)" fill="#9e616a"/>
    <path id="Path_62" data-name="Path 62" d="M439.8,254.885l-4.01.773a2.6,2.6,0,0,1-1.146.048,2.36,2.36,0,0,1-1.3-1.243,11.775,11.775,0,0,1-1.253-8.27c.137-.622.43-1.334,1.054-1.461a1.166,1.166,0,0,0,.53-.139.487.487,0,0,0-.066-.713,1.411,1.411,0,0,0-.765-.249,1.935,1.935,0,0,1,1.431-.681l-1.072-.6a2.24,2.24,0,0,1,1.82-.171,12.172,12.172,0,0,0,1.822.476,10.936,10.936,0,0,0,2.345-.276,6.148,6.148,0,0,1,5.939,2.956,2.669,2.669,0,0,1,.394,1.112,1.278,1.278,0,0,1-.4,1.074c-.439.369-1.131.315-1.556.7a1.7,1.7,0,0,0-.428,1.218,3.332,3.332,0,0,1-.187,1.3.866.866,0,0,1-1.079.5.983.983,0,0,0-1.184-.822,1.558,1.558,0,0,0-1.086,1.126,4.041,4.041,0,0,0-.041,1.63,6.31,6.31,0,0,1,.079,1.636" transform="translate(-394.503 -207.968)" fill="#2f2e41"/>
    <path id="Path_63" data-name="Path 63" d="M328.2,853.1H216.24a.206.206,0,1,1,0-.412H328.2a.206.206,0,0,1,0,.412Z" transform="translate(-216.035 -712.962)" fill="#cacaca"/>
  </g>
</svg>
